<svg width="500" height="380" viewBox="0 0 500 380" fill="none" xmlns="http://www.w3.org/2000/svg">
<g clip-path="url(#clip0_275_74)">
<path d="M368.613 261.159C368.605 283.172 362.477 304.749 350.914 323.481C339.351 342.212 322.809 357.36 303.134 367.233C302.127 367.74 301.11 368.232 300.082 368.71C273.525 381.034 243.36 383.143 215.346 374.634C212.597 373.794 209.891 372.859 207.229 371.83C182.879 362.41 162.316 345.223 148.726 322.931C135.136 300.639 129.278 274.486 132.06 248.527C134.842 222.568 146.109 198.251 164.114 179.345C182.119 160.438 205.857 147.999 231.65 143.953C237.721 143.014 243.855 142.543 249.998 142.544C315.508 142.544 368.613 195.649 368.613 261.159Z" fill="#F2F2F2"/>
<path d="M377.217 278.065C394.9 258.866 403.998 230.122 394.465 205.825C380.418 230.49 358.1 249.391 331.459 259.184C321.171 262.924 309.339 266.012 303.75 275.425C300.273 281.282 300.026 288.613 301.602 295.239C303.178 301.865 306.416 307.959 309.621 313.969L309.641 315.669C334.683 308.309 359.535 297.263 377.217 278.065Z" fill="#E6E6E6"/>
<path d="M393.933 205.955C390.931 227.349 381.264 247.254 366.306 262.842C363.081 266.162 359.52 269.25 355.405 271.416C351.377 273.497 346.865 274.461 342.339 274.208C338.113 274.058 333.809 273.414 329.62 274.293C325.205 275.22 321.712 278.071 319.446 281.916C316.673 286.621 315.756 292.041 315.044 297.373C314.253 303.293 313.525 309.454 310.144 314.549C309.735 315.167 310.717 315.766 311.126 315.15C317.007 306.285 315.025 294.965 318.99 285.408C320.841 280.948 324.046 277.019 328.842 275.668C333.037 274.487 337.476 275.147 341.753 275.336C346.244 275.535 350.519 274.983 354.631 273.082C358.837 271.136 362.526 268.182 365.821 264.959C373.24 257.594 379.455 249.109 384.238 239.814C389.756 229.236 393.424 217.793 395.083 205.978C395.185 205.246 394.034 205.228 393.933 205.955Z" fill="white"/>
<path d="M371.418 258.107C374.374 260.261 378 261.295 381.647 261.023C385.295 260.751 388.728 259.192 391.332 256.623C391.857 256.101 391.071 255.261 390.545 255.783C388.125 258.18 384.927 259.632 381.53 259.878C378.132 260.124 374.759 259.148 372.018 257.125C371.422 256.686 370.825 257.67 371.418 258.107Z" fill="white"/>
<path d="M344.471 274.567C343.246 267.19 344.847 259.623 348.954 253.374C349.362 252.756 348.38 252.156 347.973 252.774C343.711 259.285 342.061 267.163 343.352 274.836C343.476 275.568 344.594 275.294 344.471 274.567Z" fill="white"/>
<path d="M388.235 229.126C386.917 228.531 385.768 227.618 384.891 226.469C384.014 225.32 383.436 223.97 383.209 222.543C383.094 221.81 381.977 222.084 382.09 222.812C382.348 224.388 382.989 225.877 383.955 227.149C384.922 228.421 386.185 229.437 387.634 230.108C387.766 230.182 387.921 230.204 388.067 230.169C388.214 230.134 388.342 230.044 388.425 229.917C388.504 229.787 388.528 229.631 388.493 229.483C388.457 229.335 388.364 229.207 388.235 229.126Z" fill="white"/>
<path d="M310.497 178.271C310.556 178.731 310.614 179.19 310.665 179.656C311.417 185.837 311.666 192.068 311.409 198.289C311.396 198.771 311.377 199.258 311.351 199.738C310.571 214.719 307.017 229.426 300.87 243.109C298.418 248.552 295.556 253.801 292.309 258.809C287.823 265.726 282.409 272.869 280.526 280.635C280.321 281.443 280.165 282.263 280.061 283.09L307.565 315.562C307.664 315.604 307.757 315.653 307.857 315.696L308.896 317.043C309.081 316.796 309.268 316.536 309.454 316.29C309.562 316.147 309.664 315.997 309.772 315.855C309.843 315.757 309.913 315.66 309.981 315.576C310.005 315.543 310.028 315.511 310.044 315.485C310.113 315.401 310.168 315.316 310.23 315.238C311.28 313.789 312.322 312.33 313.355 310.861C313.362 310.855 313.362 310.855 313.364 310.841C321.208 299.628 328.186 287.662 333.125 275.017C333.274 274.636 333.43 274.25 333.566 273.855C335.761 268.143 337.485 262.261 338.722 256.268C339.388 252.984 339.888 249.668 340.22 246.334C341.059 237.717 340.538 229.022 338.675 220.567C334.96 203.712 325.895 188.233 311.597 178.968C311.231 178.731 310.871 178.502 310.497 178.271Z" fill="#E6E6E6"/>
<path d="M310.147 178.693C320.631 197.583 324.897 219.296 322.339 240.748C321.763 245.341 320.778 249.949 318.797 254.157C316.833 258.243 313.812 261.729 310.045 264.253C306.581 266.677 302.757 268.755 299.942 271.978C296.974 275.376 295.902 279.756 296.407 284.19C297.026 289.616 299.557 294.496 302.199 299.182C305.131 304.385 308.26 309.743 308.628 315.846C308.673 316.586 309.817 316.473 309.773 315.735C309.132 305.116 300.734 297.271 298.146 287.252C296.938 282.578 297.132 277.511 300.148 273.544C302.786 270.076 306.728 267.93 310.257 265.506C313.962 262.961 317.043 259.947 319.182 255.953C321.369 251.867 322.535 247.287 323.226 242.73C324.716 232.383 324.569 221.866 322.792 211.565C320.829 199.797 316.868 188.451 311.079 178.019C310.721 177.374 309.79 178.052 310.147 178.693Z" fill="white"/>
<path d="M323.57 233.889C327.227 233.83 330.744 232.472 333.493 230.059C336.242 227.646 338.044 224.334 338.576 220.715C338.682 219.982 337.548 219.784 337.443 220.518C336.953 223.889 335.274 226.973 332.71 229.215C330.146 231.457 326.864 232.709 323.458 232.744C322.718 232.752 322.834 233.897 323.57 233.889Z" fill="white"/>
<path d="M311.964 263.256C306.545 258.103 303.267 251.097 302.785 243.635C302.737 242.896 301.592 243.008 301.64 243.746C302.157 251.511 305.582 258.794 311.233 264.144C311.772 264.654 312.5 263.762 311.964 263.256Z" fill="white"/>
<path d="M319.549 200.625C318.139 200.943 316.671 200.905 315.279 200.516C313.887 200.127 312.613 199.398 311.572 198.394C311.04 197.878 310.312 198.77 310.841 199.283C311.996 200.386 313.404 201.189 314.941 201.623C316.479 202.056 318.099 202.107 319.66 201.77C319.81 201.75 319.947 201.675 320.043 201.558C320.139 201.441 320.187 201.292 320.177 201.142C320.162 200.99 320.087 200.851 319.969 200.754C319.852 200.657 319.701 200.611 319.549 200.625Z" fill="white"/>
<path d="M499.374 23.0433H0.626044C0.45874 23.0396 0.29954 22.9705 0.182529 22.8509C0.0655175 22.7313 0 22.5706 0 22.4032C0 22.2359 0.0655175 22.0752 0.182529 21.9555C0.29954 21.8359 0.45874 21.7668 0.626044 21.7631H499.374C499.541 21.7668 499.7 21.8359 499.817 21.9555C499.934 22.0752 500 22.2359 500 22.4032C500 22.5706 499.934 22.7313 499.817 22.8509C499.7 22.9705 499.541 23.0396 499.374 23.0433Z" fill="#CACACA"/>
<path d="M14.7191 14.082C18.5229 14.082 21.6066 10.9297 21.6066 7.04101C21.6066 3.15237 18.5229 0 14.7191 0C10.9152 0 7.83154 3.15237 7.83154 7.04101C7.83154 10.9297 10.9152 14.082 14.7191 14.082Z" fill="#3F3D56"/>
<path d="M38.5125 14.082C42.3164 14.082 45.4 10.9297 45.4 7.04101C45.4 3.15237 42.3164 0 38.5125 0C34.7086 0 31.625 3.15237 31.625 7.04101C31.625 10.9297 34.7086 14.082 38.5125 14.082Z" fill="#3F3D56"/>
<path d="M62.3055 14.082C66.1094 14.082 69.193 10.9297 69.193 7.04101C69.193 3.15237 66.1094 0 62.3055 0C58.5016 0 55.418 3.15237 55.418 7.04101C55.418 10.9297 58.5016 14.082 62.3055 14.082Z" fill="#3F3D56"/>
<path d="M485.118 4.30676H468.212C467.878 4.2994 467.559 4.16131 467.325 3.92203C467.091 3.68275 466.96 3.36131 466.96 3.02658C466.96 2.69184 467.091 2.37041 467.325 2.13113C467.559 1.89185 467.878 1.75375 468.212 1.7464H485.118C485.453 1.75375 485.771 1.89185 486.005 2.13113C486.239 2.37041 486.37 2.69184 486.37 3.02658C486.37 3.36131 486.239 3.68275 486.005 3.92203C485.771 4.16131 485.453 4.2994 485.118 4.30676Z" fill="#3F3D56"/>
<path d="M485.118 9.10746H468.212C467.878 9.10007 467.559 8.96195 467.325 8.72268C467.091 8.4834 466.96 8.16199 466.96 7.82728C466.96 7.49256 467.091 7.17115 467.325 6.93188C467.559 6.6926 467.878 6.55448 468.212 6.54709H485.118C485.453 6.55448 485.771 6.6926 486.005 6.93188C486.239 7.17115 486.37 7.49256 486.37 7.82728C486.37 8.16199 486.239 8.4834 486.005 8.72268C485.771 8.96195 485.453 9.10007 485.118 9.10746Z" fill="#3F3D56"/>
<path d="M485.118 13.9082H468.212C467.878 13.9008 467.559 13.7626 467.325 13.5234C467.091 13.2841 466.96 12.9627 466.96 12.628C466.96 12.2933 467.091 11.9718 467.325 11.7326C467.559 11.4933 467.878 11.3552 468.212 11.3478H485.118C485.453 11.3552 485.771 11.4933 486.005 11.7326C486.239 11.9718 486.37 12.2933 486.37 12.628C486.37 12.9627 486.239 13.2841 486.005 13.5234C485.771 13.7626 485.453 13.9008 485.118 13.9082Z" fill="#3F3D56"/>
<path d="M135.222 309.42C121.114 294.103 113.855 271.171 121.461 251.785C132.668 271.464 150.474 286.544 171.729 294.357C179.937 297.341 189.377 299.805 193.836 307.315C196.61 311.987 196.807 317.836 195.55 323.123C194.292 328.41 191.71 333.271 189.152 338.066L189.136 339.423C169.157 333.551 149.329 324.738 135.222 309.42Z" fill="#E6E6E6"/>
<path d="M121.886 251.889C124.281 268.958 131.993 284.839 143.927 297.276C146.449 299.999 149.384 302.307 152.625 304.116C155.838 305.776 159.438 306.545 163.049 306.344C166.42 306.224 169.855 305.71 173.196 306.412C174.902 306.796 176.506 307.537 177.905 308.585C179.304 309.633 180.466 310.965 181.314 312.493C183.526 316.247 184.257 320.571 184.826 324.825C185.457 329.548 186.038 334.464 188.735 338.529C189.062 339.022 188.278 339.5 187.952 339.008C183.259 331.936 184.841 322.905 181.677 315.279C180.201 311.721 177.644 308.586 173.817 307.509C170.471 306.566 166.929 307.092 163.516 307.244C159.996 307.492 156.469 306.874 153.242 305.445C149.92 303.807 146.901 301.615 144.314 298.964C138.395 293.089 133.436 286.319 129.62 278.903C125.218 270.464 122.292 261.333 120.968 251.907C120.886 251.324 121.805 251.309 121.886 251.889Z" fill="white"/>
<path d="M139.849 293.497C137.49 295.216 134.598 296.041 131.687 295.824C128.777 295.607 126.038 294.363 123.961 292.314C123.542 291.897 124.169 291.227 124.588 291.644C126.519 293.556 129.07 294.714 131.781 294.911C134.492 295.107 137.183 294.328 139.37 292.714C139.845 292.364 140.322 293.149 139.849 293.497Z" fill="white"/>
<path d="M161.348 306.63C162.325 300.745 161.048 294.707 157.771 289.722C157.446 289.228 158.229 288.75 158.554 289.243C161.954 294.437 163.27 300.723 162.24 306.845C162.142 307.428 161.25 307.21 161.348 306.63Z" fill="white"/>
<path d="M126.431 270.376C127.483 269.901 128.399 269.172 129.099 268.256C129.799 267.339 130.26 266.262 130.442 265.123C130.533 264.539 131.424 264.757 131.334 265.338C131.128 266.596 130.617 267.784 129.846 268.798C129.075 269.813 128.067 270.624 126.91 271.159C126.806 271.218 126.682 271.236 126.565 271.208C126.448 271.179 126.346 271.108 126.279 271.007C126.217 270.903 126.197 270.778 126.226 270.66C126.254 270.542 126.328 270.44 126.431 270.376Z" fill="white"/>
<path d="M188.453 229.802C188.406 230.168 188.36 230.535 188.319 230.907C187.719 235.838 187.521 240.81 187.726 245.773C187.736 246.157 187.751 246.546 187.772 246.929C188.394 258.881 191.229 270.615 196.134 281.532C198.09 285.874 200.373 290.062 202.965 294.058C206.543 299.577 210.863 305.275 212.365 311.471C212.529 312.116 212.653 312.77 212.736 313.43L190.793 339.337C190.713 339.371 190.639 339.41 190.56 339.444L189.731 340.519C189.583 340.322 189.434 340.115 189.286 339.918C189.199 339.804 189.118 339.684 189.031 339.571C188.975 339.493 188.92 339.415 188.865 339.348C188.846 339.322 188.827 339.296 188.814 339.275C188.759 339.209 188.716 339.141 188.666 339.079C187.829 337.923 186.998 336.758 186.173 335.586C186.167 335.581 186.167 335.581 186.166 335.571C179.907 326.625 174.34 317.077 170.4 306.989C170.281 306.685 170.156 306.377 170.048 306.062C168.297 301.504 166.921 296.812 165.935 292.03C165.403 289.41 165.004 286.765 164.74 284.105C164.07 277.23 164.486 270.292 165.972 263.547C168.936 250.099 176.168 237.75 187.576 230.358C187.868 230.169 188.155 229.986 188.453 229.802Z" fill="#E6E6E6"/>
<path d="M188.733 230.139C180.368 245.209 176.964 262.533 179.005 279.648C179.379 283.34 180.333 286.951 181.831 290.346C183.398 293.606 185.809 296.388 188.813 298.401C191.577 300.335 194.629 301.993 196.875 304.565C198.005 305.898 198.84 307.456 199.326 309.135C199.812 310.814 199.937 312.577 199.694 314.308C199.201 318.636 197.181 322.53 195.074 326.269C192.734 330.42 190.238 334.694 189.944 339.564C189.909 340.154 188.995 340.064 189.031 339.475C189.542 331.003 196.242 324.744 198.307 316.751C199.271 313.021 199.116 308.978 196.71 305.814C194.605 303.047 191.46 301.334 188.645 299.401C185.685 297.48 183.24 294.863 181.524 291.779C179.858 288.471 178.767 284.903 178.297 281.229C177.109 272.974 177.226 264.583 178.643 256.365C180.21 246.976 183.37 237.924 187.989 229.601C188.275 229.086 189.017 229.627 188.733 230.139Z" fill="white"/>
<path d="M178.024 274.176C175.106 274.128 172.3 273.045 170.106 271.12C167.913 269.194 166.476 266.552 166.051 263.665C165.967 263.08 166.871 262.922 166.955 263.508C167.346 266.197 168.685 268.658 170.731 270.447C172.777 272.236 175.395 273.234 178.113 273.262C178.703 273.269 178.611 274.182 178.024 274.176Z" fill="white"/>
<path d="M187.283 297.605C191.606 293.494 194.221 287.905 194.606 281.952C194.644 281.362 195.557 281.451 195.52 282.04C195.107 288.235 192.374 294.046 187.866 298.314C187.436 298.721 186.855 298.01 187.283 297.605Z" fill="white"/>
<path d="M181.232 247.637C182.357 247.89 183.528 247.86 184.638 247.55C185.749 247.239 186.766 246.657 187.596 245.857C188.021 245.445 188.601 246.157 188.179 246.566C187.257 247.446 186.134 248.087 184.908 248.433C183.681 248.779 182.389 248.819 181.143 248.55C181.023 248.535 180.914 248.474 180.838 248.381C180.761 248.288 180.723 248.169 180.73 248.049C180.743 247.928 180.802 247.817 180.896 247.74C180.99 247.662 181.111 247.625 181.232 247.637Z" fill="white"/>
<path d="M462.386 68.1651H70.5011C69.9203 68.1657 69.3451 68.052 68.8084 67.8302C68.2716 67.6084 67.7838 67.283 67.3729 66.8726C66.9619 66.4621 66.636 65.9747 66.4136 65.4382C66.1911 64.9017 66.0767 64.3266 66.0767 63.7458C66.0767 63.1651 66.1911 62.59 66.4136 62.0535C66.636 61.517 66.9619 61.0296 67.3729 60.6191C67.7838 60.2087 68.2716 59.8833 68.8084 59.6615C69.3451 59.4397 69.9203 59.3259 70.5011 59.3266H462.386C462.967 59.3259 463.542 59.4397 464.079 59.6615C464.616 59.8833 465.104 60.2087 465.514 60.6191C465.925 61.0296 466.251 61.517 466.474 62.0535C466.696 62.59 466.811 63.1651 466.811 63.7458C466.811 64.3266 466.696 64.9017 466.474 65.4382C466.251 65.9747 465.925 66.4621 465.514 66.8726C465.104 67.283 464.616 67.6084 464.079 67.8302C463.542 68.052 462.967 68.1657 462.386 68.1651Z" fill="#E25050"/>
<path d="M462.386 85.6277H70.501C69.3289 85.6277 68.2048 85.162 67.376 84.3332C66.5471 83.5044 66.0815 82.3803 66.0815 81.2082C66.0815 80.0361 66.5471 78.912 67.376 78.0832C68.2048 77.2544 69.3289 76.7888 70.501 76.7888H462.386C463.558 76.7888 464.682 77.2544 465.511 78.0832C466.34 78.912 466.805 80.0361 466.805 81.2082C466.805 82.3803 466.34 83.5044 465.511 84.3332C464.682 85.162 463.558 85.6277 462.386 85.6277Z" fill="#E25050"/>
<path d="M385.62 103.09H70.501C69.3289 103.09 68.2048 102.625 67.376 101.796C66.5471 100.967 66.0815 99.8429 66.0815 98.6708C66.0815 97.4987 66.5471 96.3746 67.376 95.5458C68.2048 94.717 69.3289 94.2513 70.501 94.2513H385.62C386.792 94.2513 387.916 94.717 388.745 95.5458C389.574 96.3746 390.039 97.4987 390.039 98.6708C390.039 99.8429 389.574 100.967 388.745 101.796C387.916 102.625 386.792 103.09 385.62 103.09Z" fill="#E25050"/>
<path d="M436.777 245.967C441.194 248.965 446.103 252.339 447.527 257.811C447.854 258.98 447.941 260.202 447.784 261.406C447.626 262.609 447.227 263.768 446.609 264.813C445.476 266.703 443.788 268.187 442.14 269.617C440.184 271.317 438.211 272.987 436.693 275.108C435.998 276.08 437.605 277.006 438.294 276.044C441.108 272.11 445.785 269.882 448.262 265.661C451.192 260.669 449.237 254.748 445.607 250.707C443.341 248.185 440.5 246.259 437.712 244.367C436.723 243.695 435.795 245.3 436.777 245.967Z" fill="#E6E7E8"/>
<path d="M452.221 245.967C456.638 248.965 461.548 252.339 462.971 257.811C463.298 258.98 463.386 260.202 463.228 261.406C463.07 262.609 462.671 263.768 462.054 264.813C460.92 266.703 459.232 268.187 457.585 269.617C455.628 271.317 453.656 272.987 452.138 275.108C451.442 276.08 453.049 277.006 453.738 276.044C456.553 272.11 461.23 269.882 463.707 265.661C466.636 260.669 464.681 254.748 461.051 250.707C458.785 248.185 455.944 246.259 453.157 244.367C452.167 243.695 451.239 245.3 452.221 245.967Z" fill="#E6E7E8"/>
<path d="M76.205 245.967C71.7883 248.965 66.8789 252.339 65.4556 257.811C65.1284 258.98 65.041 260.202 65.1986 261.406C65.3562 262.609 65.7555 263.768 66.3727 264.813C67.506 266.703 69.1946 268.187 70.8418 269.617C72.7985 271.317 74.7707 272.987 76.2889 275.108C76.9841 276.08 75.3774 277.006 74.6886 276.044C71.874 272.11 67.1967 269.882 64.7197 265.661C61.7902 260.669 63.7451 254.748 67.3756 250.707C69.6412 248.185 72.4821 246.259 75.2696 244.367C76.2591 243.695 77.1874 245.3 76.205 245.967Z" fill="#E6E7E8"/>
<path d="M60.7608 245.967C56.3441 248.965 51.4347 252.339 50.0113 257.811C49.6841 258.98 49.5967 260.202 49.7543 261.406C49.9119 262.609 50.3112 263.768 50.9284 264.813C52.0618 266.703 53.7503 268.187 55.3974 269.617C57.3542 271.317 59.3264 272.987 60.8446 275.108C61.5398 276.08 59.9331 277.006 59.2443 276.044C56.4297 272.11 51.7524 269.882 49.2754 265.661C46.3459 260.669 48.3008 254.748 51.9313 250.707C54.1968 248.185 57.0378 246.259 59.8253 244.367C60.8148 243.695 61.7431 245.3 60.7608 245.967Z" fill="#E6E7E8"/>
<path d="M231.127 181.808C239.087 181.808 245.54 175.355 245.54 167.395C245.54 159.435 239.087 152.982 231.127 152.982C223.166 152.982 216.713 159.435 216.713 167.395C216.713 175.355 223.166 181.808 231.127 181.808Z" fill="#2F2E41"/>
<path d="M254.188 236.578C274.354 236.578 290.701 220.231 290.701 200.065C290.701 179.899 274.354 163.551 254.188 163.551C234.022 163.551 217.674 179.899 217.674 200.065C217.674 220.231 234.022 236.578 254.188 236.578Z" fill="#2F2E41"/>
<path d="M257.209 236.569C273.596 236.569 286.88 223.285 286.88 206.898C286.88 190.511 273.596 177.227 257.209 177.227C240.822 177.227 227.538 190.511 227.538 206.898C227.538 223.285 240.822 236.569 257.209 236.569Z" fill="#9E616A"/>
<path d="M277.359 176.652C272.159 173.482 266.204 171.768 260.115 171.687C254.026 171.607 248.028 173.164 242.747 176.196C237.466 179.227 233.096 183.622 230.095 188.92C227.093 194.219 225.571 200.226 225.686 206.314C240.805 210.11 256.688 213.015 272.812 207.222L276.619 197.903L278.864 207.229C283.774 209.236 288.697 210.934 293.62 207.21C293.821 201.139 292.425 195.121 289.571 189.759C286.718 184.396 282.507 179.877 277.359 176.652Z" fill="#2F2E41"/>
<path d="M200.695 261.777H200.655C198.701 261.796 196.787 261.222 195.164 260.132C193.542 259.041 192.288 257.485 191.568 255.668C190.794 253.828 190.595 251.796 190.997 249.84C191.4 247.885 192.386 246.097 193.824 244.713L193.991 244.547C199.607 238.892 202.771 231.253 202.799 223.283C202.806 212.027 196.505 201.625 190.599 192.758L189.51 191.128C183.624 182.322 177.538 173.217 175.988 162.729C174.343 151.59 178.561 139.832 186.734 132.775C195.217 125.45 208.006 123.481 217.836 127.988C228.023 132.659 234.576 144.295 233.079 155.055L233.064 155.167L229.484 158.387L229.352 158.377C220.875 157.724 212.431 163.309 209.702 171.357C207.865 176.775 208.526 182.711 209.513 188.32C211.606 200.198 215.124 211.78 219.992 222.814C220.239 223.375 220.489 223.938 220.743 224.502C223.58 230.856 226.514 237.425 225.39 244.23C223.615 254.984 212.2 261.277 202.362 261.738C201.805 261.764 201.249 261.778 200.695 261.777Z" fill="#2F2E41"/>
<path d="M329.773 348.947C321.766 356.225 312.804 362.377 303.134 367.233L301.089 360.648L299.439 367.066L300.082 368.71C299.371 369.043 298.655 369.365 297.938 369.68C297.326 369.951 296.715 370.217 296.103 370.477C273.706 379.885 248.969 382.222 225.206 377.173C224.582 377.044 223.964 376.908 223.347 376.766C220.647 376.148 217.978 375.431 215.346 374.634L219.028 360.944L215.754 344.394L207.229 371.83C197.551 368.083 188.408 363.082 180.034 356.953C182.653 340.02 185.723 319.695 187.62 305.628C188.306 300.488 188.837 296.188 189.134 293.185C189.374 290.372 189.925 287.593 190.777 284.901C191.195 283.599 191.731 282.338 192.377 281.132C192.513 280.867 192.661 280.613 192.809 280.366C192.952 280.125 193.1 279.897 193.254 279.674C197.048 274.022 201.916 274.368 201.916 274.368L216.446 271.532L220.987 270.642L222.834 270.284L225.095 269.839C226.822 269.502 228.459 268.807 229.901 267.798C231.343 266.79 232.558 265.49 233.466 263.983L239.638 253.734C240.946 251.567 242.874 249.843 245.173 248.785C245.451 248.662 245.735 248.544 246.019 248.433C247.274 247.963 248.597 247.698 249.936 247.648L258.672 247.309L262.205 247.167L267.03 246.981C268.169 246.936 269.308 247.048 270.416 247.315H270.422C270.811 247.407 271.182 247.512 271.559 247.642C274.477 248.628 276.933 250.65 278.459 253.326L282.771 260.888C283.742 262.588 285.095 264.039 286.724 265.126C288.353 266.212 290.213 266.904 292.156 267.146L293.811 267.35L295.671 267.584L300.372 268.171L308.959 269.246L308.978 269.574C310.621 269.703 315.304 270.667 318.442 277.358C318.652 277.796 318.85 278.266 319.042 278.754C320.141 281.721 320.841 284.82 321.124 287.971C321.142 288.107 321.155 288.243 321.167 288.379C322.217 299.085 326.288 326.385 329.773 348.947Z" fill="#2F2E41"/>
<path d="M259.808 376.945L259.222 379.682L257.412 379.292L257.95 376.782C259.649 368.862 260.416 360.77 260.236 352.671L257.961 250.28L257.918 248.439L257.894 247.321L258.833 247.302L259.747 247.284L259.84 251.534L262.09 352.856C262.269 360.947 261.504 369.031 259.808 376.945Z" fill="#E25050"/>
<path d="M187.2 308.692L213.258 312.25L215.081 312.497L216.193 312.652L216.063 313.578L215.933 314.486L211.72 313.912L186.947 310.526L187.2 308.692Z" fill="#E25050"/>
<path d="M264.967 249.014L262.205 247.166L258.832 247.302L258.672 247.309L257.918 248.439L257.961 250.28L259.839 251.534L262.218 253.122C262.487 253.303 262.79 253.43 263.109 253.494C263.428 253.558 263.756 253.559 264.075 253.496C264.394 253.434 264.697 253.308 264.968 253.128C265.238 252.948 265.471 252.716 265.652 252.446C265.832 252.176 265.958 251.872 266.022 251.554C266.085 251.235 266.085 250.907 266.021 250.588C265.958 250.269 265.832 249.966 265.651 249.696C265.47 249.426 265.238 249.194 264.967 249.014ZM264.621 251.757C264.485 251.959 264.291 252.117 264.065 252.21C263.839 252.304 263.591 252.327 263.351 252.279C263.112 252.231 262.892 252.113 262.719 251.94C262.547 251.767 262.429 251.547 262.382 251.307C262.335 251.068 262.359 250.819 262.453 250.593C262.547 250.368 262.705 250.175 262.908 250.039C263.111 249.904 263.35 249.831 263.595 249.831C263.839 249.831 264.078 249.904 264.281 250.039C264.553 250.222 264.742 250.506 264.805 250.828C264.869 251.15 264.803 251.484 264.621 251.757Z" fill="#E25050"/>
</g>
<defs>
<clipPath id="clip0_275_74">
<rect width="500" height="379.774" fill="white"/>
</clipPath>
</defs>
</svg>
