<svg width="308" height="89" viewBox="0 0 308 89" fill="none" xmlns="http://www.w3.org/2000/svg">
<g filter="url(#filter0_d_1_8)">
<path d="M4.856 79V1.23999H37.496V11.224H19.064V33.592H33.56V43.48H19.064V69.208H37.688V79H4.856ZM65.5025 80.056C60.8305 80.056 56.9265 79.16 53.7905 77.368C50.6545 75.512 48.2865 72.824 46.6865 69.304C45.0865 65.784 44.1905 61.464 43.9985 56.344L56.1905 53.944C56.3185 56.952 56.6705 59.608 57.2465 61.912C57.8865 64.216 58.8145 66.008 60.0305 67.288C61.3105 68.504 62.9745 69.112 65.0225 69.112C67.3265 69.112 68.9585 68.44 69.9185 67.096C70.8785 65.688 71.3585 63.928 71.3585 61.816C71.3585 58.424 70.5905 55.64 69.0545 53.464C67.5185 51.288 65.4705 49.112 62.9105 46.936L53.1185 38.296C50.3665 35.928 48.1585 33.304 46.4945 30.424C44.8945 27.48 44.0945 23.864 44.0945 19.576C44.0945 13.432 45.8865 8.696 49.4705 5.368C53.0545 2.04 57.9505 0.375994 64.1585 0.375994C67.8065 0.375994 70.8465 0.951994 73.2785 2.10399C75.7105 3.192 77.6305 4.728 79.0385 6.712C80.5105 8.696 81.5985 10.968 82.3025 13.528C83.0065 16.024 83.4545 18.68 83.6465 21.496L71.5505 23.608C71.4225 21.176 71.1345 19 70.6865 17.08C70.3025 15.16 69.5665 13.656 68.4785 12.568C67.4545 11.48 65.9185 10.936 63.8705 10.936C61.7585 10.936 60.1265 11.64 58.9745 13.048C57.8865 14.392 57.3425 16.088 57.3425 18.136C57.3425 20.76 57.8865 22.936 58.9745 24.664C60.0625 26.328 61.6305 28.056 63.6785 29.848L73.3745 38.392C76.5745 41.08 79.2945 44.248 81.5345 47.896C83.8385 51.48 84.9905 55.832 84.9905 60.952C84.9905 64.664 84.1585 67.96 82.4945 70.84C80.8945 73.72 78.6225 75.992 75.6785 77.656C72.7985 79.256 69.4065 80.056 65.5025 80.056ZM101.132 79V11.704H88.748V1.23999H127.532V11.704H115.34V79H101.132ZM128.795 79L144.347 1.23999H159.515L175.067 79H161.915L158.843 61.048H145.307L142.139 79H128.795ZM146.747 52.024H157.307L152.027 19.384L146.747 52.024ZM187.007 79V11.704H174.623V1.23999H213.407V11.704H201.215V79H187.007ZM220.481 79V1.23999H253.121V11.224H234.689V33.592H249.185V43.48H234.689V69.208H253.313V79H220.481ZM282.472 80.056C276.776 80.056 272.296 78.936 269.032 76.696C265.832 74.456 263.592 71.416 262.312 67.576C261.032 63.672 260.392 59.192 260.392 54.136V26.392C260.392 21.08 261.032 16.472 262.312 12.568C263.592 8.664 265.832 5.656 269.032 3.544C272.296 1.432 276.776 0.375994 282.472 0.375994C287.848 0.375994 292.04 1.304 295.048 3.16C298.12 4.952 300.296 7.544 301.576 10.936C302.856 14.328 303.496 18.264 303.496 22.744V29.272H289.864V22.552C289.864 20.376 289.736 18.392 289.48 16.6C289.288 14.808 288.68 13.4 287.656 12.376C286.696 11.288 285 10.744 282.568 10.744C280.136 10.744 278.344 11.32 277.192 12.472C276.104 13.56 275.4 15.064 275.08 16.984C274.76 18.84 274.6 20.952 274.6 23.32V57.112C274.6 59.928 274.824 62.264 275.272 64.12C275.72 65.912 276.52 67.288 277.672 68.248C278.888 69.144 280.52 69.592 282.568 69.592C284.936 69.592 286.6 69.048 287.56 67.96C288.584 66.808 289.224 65.304 289.48 63.448C289.736 61.592 289.864 59.512 289.864 57.208V50.2H303.496V56.44C303.496 61.048 302.888 65.144 301.672 68.728C300.456 72.248 298.312 75.032 295.24 77.08C292.232 79.064 287.976 80.056 282.472 80.056Z" fill="url(#paint0_linear_1_8)" shape-rendering="crispEdges"/>
</g>
<defs>
<filter id="filter0_d_1_8" x="0.855957" y="0.375977" width="306.64" height="87.6801" filterUnits="userSpaceOnUse" color-interpolation-filters="sRGB">
<feFlood flood-opacity="0" result="BackgroundImageFix"/>
<feColorMatrix in="SourceAlpha" type="matrix" values="0 0 0 0 0 0 0 0 0 0 0 0 0 0 0 0 0 0 127 0" result="hardAlpha"/>
<feOffset dy="4"/>
<feGaussianBlur stdDeviation="2"/>
<feComposite in2="hardAlpha" operator="out"/>
<feColorMatrix type="matrix" values="0 0 0 0 0 0 0 0 0 0 0 0 0 0 0 0 0 0 0.25 0"/>
<feBlend mode="normal" in2="BackgroundImageFix" result="effect1_dropShadow_1_8"/>
<feBlend mode="normal" in="SourceGraphic" in2="effect1_dropShadow_1_8" result="shape"/>
</filter>
<linearGradient id="paint0_linear_1_8" x1="124.5" y1="135.5" x2="124.5" y2="-35" gradientUnits="userSpaceOnUse">
<stop stop-color="#C1B0B0"/>
<stop offset="0.0001" stop-color="#FF000F" stop-opacity="0"/>
<stop offset="0.0002" stop-color="#571418" stop-opacity="0.0519885"/>
<stop offset="0.0003" stop-color="white"/>
<stop offset="0.776568" stop-color="#FF000F"/>
</linearGradient>
</defs>
</svg>
